# xmcd
#
# Track frame offsets: 
#        150
#        13519
#        26028
#        37644
#        51745
#        65541
#        78775
#        90112
#        100525
#        114273
#        125091
#        135163
#        147123
#        160583
#        171831
#        183465
#        196263
#        207566
#        222250
#        233627
#
# Disc length: 3249 seconds
#
# Revision: 0
# Processed by: cddbd v1.5.2PL0 Copyright (c) Steve Scherf et al.
# Submitted via: ExactAudioCopy v1.0b1
#
DISCID=fe0caf14
DTITLE=Lefty Frizzell - Lefty Frizzell
DYEAR=1982
DGENRE=Country
TTITLE0=If You've Got the Money, (I've Got the Time)
TTITLE1=I Love You a Thousand Ways
TTITLE2=Shine, shave, Shower (it's Saturday)
TTITLE3=Always Late (With Your Kisses)
TTITLE4=Mom and Dad's Waltz
TTITLE5=Travellin' Blues
TTITLE6=Look What Thoughts Will Do
TTITLE7=Give Me More More More of Your Kisses
TTITLE8=I Want to Be With You Always
TTITLE9=How Long will it take to stop loving you
TTITLE10=The brakeman's blues
TTITLE11=My Rough and rowdy Ways
TTITLE12=Don't Stay Away (Till love grows cold)
TTITLE13=Forever (And Always)
TTITLE14=A King Without a Queen
TTITLE15=It's Just You (I Could Love always)
TTITLE16=If you can spare the time (I won't miss the money)
TTITLE17=Treasure Untold
TTITLE18=I Know You're Lonesome (While Waiting for Me)
TTITLE19=My Baby's Just Like Money
EXTD=
EXTT0=
EXTT1=
EXTT2=
EXTT3=
EXTT4=
EXTT5=
EXTT6=
EXTT7=
EXTT8=
EXTT9=
EXTT10=
EXTT11=
EXTT12=
EXTT13=
EXTT14=
EXTT15=
EXTT16=
EXTT17=
EXTT18=
EXTT19=
PLAYORDER=
